<svg xmlns="http://www.w3.org/2000/svg" width="800" height="1200" viewBox="0 0 800 1200"><rect width="100%" height="100%" fill="#DDDDDD"/><path fill="#999999" d="M185.685 625.66q2.87 0 5.03-.82t3.64-2.28 2.23-3.48.75-4.37q0-5.59-3.1-8.46t-8.55-2.87-8.56 2.87q-3.1 2.87-3.1 8.46 0 2.35.75 4.37.76 2.02 2.24 3.48t3.64 2.28 5.03.82m0-51.65q-2.59 0-4.47.8t-3.12 2.14q-1.25 1.33-1.84 3.07-.58 1.74-.58 3.67 0 2.02.49 3.92.49 1.91 1.67 3.39 1.17 1.48 3.1 2.37t4.75.89 4.75-.89q1.92-.89 3.1-2.37 1.17-1.48 1.67-3.39.49-1.9.49-3.92 0-1.93-.61-3.67t-1.83-3.07q-1.23-1.34-3.11-2.14t-4.46-.8m11.47 24.53q6.2 2.02 9.16 6.18t2.96 10.18q0 4.51-1.71 8.18-1.72 3.66-4.82 6.25-3.1 2.58-7.45 3.99t-9.61 1.41q-5.27 0-9.61-1.41-4.35-1.41-7.45-3.99-3.1-2.59-4.82-6.25-1.72-3.67-1.72-8.18 0-6.02 2.97-10.18 2.96-4.16 9.16-6.18-4.93-2.07-7.4-5.87-2.47-3.81-2.47-9.17 0-3.85 1.57-7.19 1.58-3.34 4.4-5.8 2.82-2.47 6.74-3.86 3.93-1.38 8.63-1.38t8.62 1.38q3.93 1.39 6.75 3.86 2.82 2.46 4.39 5.8 1.58 3.34 1.58 7.19 0 5.36-2.47 9.17-2.47 3.8-7.4 5.87m67.96 1.46q0 8.88-1.91 15.44-1.9 6.56-5.26 10.83-3.36 4.28-7.94 6.37t-9.9 2.09q-5.31 0-9.84-2.09-4.54-2.09-7.87-6.37-3.34-4.27-5.22-10.83t-1.88-15.44q0-8.93 1.88-15.46 1.88-6.54 5.22-10.81 3.33-4.28 7.87-6.37 4.53-2.09 9.84-2.09 5.32 0 9.9 2.09t7.94 6.37q3.36 4.27 5.26 10.81 1.91 6.53 1.91 15.46m-11.99 0q0-7.38-1.08-12.22t-2.89-7.71-4.16-4.02-4.89-1.15q-2.49 0-4.81 1.15-2.33 1.15-4.12 4.02-1.78 2.87-2.84 7.71t-1.06 12.22 1.06 12.22 2.84 7.71q1.79 2.86 4.12 4.02 2.32 1.15 4.81 1.15 2.54 0 4.89-1.15 2.35-1.16 4.16-4.02 1.81-2.87 2.89-7.71t1.08-12.22m66.51 0q0 8.88-1.91 15.44-1.9 6.56-5.26 10.83-3.36 4.28-7.94 6.37t-9.9 2.09q-5.31 0-9.84-2.09-4.54-2.09-7.87-6.37-3.34-4.27-5.22-10.83t-1.88-15.44q0-8.93 1.88-15.46 1.88-6.54 5.22-10.81 3.33-4.28 7.87-6.37 4.53-2.09 9.84-2.09 5.32 0 9.9 2.09t7.94 6.37q3.36 4.27 5.26 10.81 1.91 6.53 1.91 15.46m-11.99 0q0-7.38-1.08-12.22t-2.89-7.71-4.16-4.02-4.89-1.15q-2.49 0-4.81 1.15-2.33 1.15-4.12 4.02-1.78 2.87-2.84 7.71t-1.06 12.22 1.06 12.22 2.84 7.71q1.79 2.86 4.12 4.02 2.32 1.15 4.81 1.15 2.54 0 4.89-1.15 2.35-1.16 4.16-4.02 1.81-2.87 2.89-7.71t1.08-12.22m86.62 18.42-6.15 6.07-15.94-15.94-16.07 16.03-6.16-6.06 16.08-16.12-15.32-15.33 6.11-6.11 15.32 15.33 15.23-15.23 6.2 6.11-15.28 15.27zm64.35 6.86h12.22v8.7h-37.6v-8.7h13.77v-39.62q0-2.35.14-4.84l-9.78 8.18q-.84.66-1.67.82-.82.17-1.55.03-.72-.14-1.29-.5-.56-.35-.84-.77l-3.67-5.03 20.73-17.63h9.54zm46.76-2.11h17.44q1.88 0 2.98 1.06 1.11 1.05 1.11 2.79v6.96h-46.63v-3.85q0-1.18.5-2.47.49-1.29 1.57-2.33l20.64-20.68q2.58-2.63 4.62-5.03 2.05-2.39 3.41-4.74 1.37-2.35 2.09-4.77.73-2.43.73-5.1 0-2.45-.7-4.3-.71-1.86-2-3.13t-3.1-1.9q-1.81-.64-4.07-.64-2.07 0-3.83.59t-3.12 1.64q-1.37 1.06-2.31 2.47t-1.41 3.1q-.8 2.17-2.06 2.87-1.27.71-3.67.33l-6.11-1.08q.7-4.89 2.73-8.58 2.02-3.69 5.05-6.16 3.03-2.46 6.95-3.71 3.93-1.24 8.44-1.24 4.7 0 8.6 1.38 3.9 1.39 6.68 3.93 2.77 2.53 4.32 6.11 1.55 3.57 1.55 7.94 0 3.76-1.1 6.96-1.11 3.19-2.97 6.11-1.85 2.91-4.34 5.64-2.49 2.72-5.22 5.54l-15.32 15.65q2.21-.66 4.39-1.01 2.19-.35 4.16-.35m78.02-23.17q0 8.88-1.9 15.44t-5.27 10.83q-3.36 4.28-7.94 6.37t-9.89 2.09-9.85-2.09q-4.53-2.09-7.87-6.37-3.34-4.27-5.22-10.83t-1.88-15.44q0-8.93 1.88-15.46 1.88-6.54 5.22-10.81 3.34-4.28 7.87-6.37 4.54-2.09 9.85-2.09t9.89 2.09 7.94 6.37q3.37 4.27 5.27 10.81 1.9 6.53 1.9 15.46m-11.98 0q0-7.38-1.08-12.22t-2.89-7.71-4.16-4.02-4.89-1.15q-2.49 0-4.82 1.15t-4.11 4.02q-1.79 2.87-2.85 7.71-1.05 4.84-1.05 12.22t1.05 12.22q1.06 4.84 2.85 7.71 1.78 2.86 4.11 4.02 2.33 1.15 4.82 1.15 2.54 0 4.89-1.15 2.35-1.16 4.16-4.02 1.81-2.87 2.89-7.71t1.08-12.22m66.5 0q0 8.88-1.9 15.44t-5.27 10.83q-3.36 4.28-7.94 6.37t-9.89 2.09-9.85-2.09q-4.53-2.09-7.87-6.37-3.34-4.27-5.22-10.83t-1.88-15.44q0-8.93 1.88-15.46 1.88-6.54 5.22-10.81 3.34-4.28 7.87-6.37 4.54-2.09 9.85-2.09t9.89 2.09 7.94 6.37q3.37 4.27 5.27 10.81 1.9 6.53 1.9 15.46m-11.98 0q0-7.38-1.08-12.22t-2.89-7.71-4.16-4.02-4.89-1.15q-2.49 0-4.82 1.15t-4.11 4.02q-1.79 2.87-2.85 7.71-1.05 4.84-1.05 12.22t1.05 12.22q1.06 4.84 2.85 7.71 1.78 2.86 4.11 4.02 2.33 1.15 4.82 1.15 2.54 0 4.89-1.15 2.35-1.16 4.16-4.02 1.81-2.87 2.89-7.71t1.08-12.22"/></svg>